# xmcd
#
# Track frame offsets: 
#        150
#        17186
#        33366
#        50877
#        72021
#        84026
#        101098
#        118735
#        141102
#        161262
#        188456
#        200186
#
# Disc length: 2874 seconds
#
# Revision: 0
# Processed by: cddbd v1.5.2PL0 Copyright (c) Steve Scherf et al.
# Submitted via: ExactAudioCopy v0.99pb3
#
DISCID=9e0b380c
DTITLE=Mitch Woods Featuring The Lazy Jumpers - Jukebox Drive
DYEAR=2008
DGENRE=Blues
TTITLE0=Jukebox Drive
TTITLE1=Drunk
TTITLE2=Boppin' The Boogie
TTITLE3=Blue Light Hangover
TTITLE4=Saturday Night Boogie Woogie Man
TTITLE5=Blues Hangover
TTITLE6=Boogie Woogie Bar-B-Q
TTITLE7=Tipitina
TTITLE8=Boom Boom
TTITLE9=Parchman Farm
TTITLE10=Swell Lookin' Babe
TTITLE11=Mitch's Boogie
EXTD=
EXTT0=
EXTT1=
EXTT2=
EXTT3=
EXTT4=
EXTT5=
EXTT6=
EXTT7=
EXTT8=
EXTT9=
EXTT10=
EXTT11=
PLAYORDER=
